<svg width="114" height="150" viewBox="0 0 114 150" fill="none" xmlns="http://www.w3.org/2000/svg">
<path fill-rule="evenodd" clip-rule="evenodd" d="M57 0C88.4802 0 114 25.5198 114 57C114 60.8426 113.62 64.5963 112.895 68.2257C107.864 106.137 57.2995 149.286 57.2995 149.286C57.2995 149.286 14.2687 112.566 3.64952 77.1118C1.29066 70.8576 0 64.0796 0 57C0 25.5198 25.5198 0 57 0Z" fill="#15803D"/>
<circle cx="46.5" cy="24.5" r="4.5" fill="white"/>
<rect x="42" y="30.5248" width="9" height="23.7313" rx="4" transform="rotate(-3.34327 42 30.5248)" fill="white"/>
<rect x="44" y="46" width="23" height="8" rx="4" fill="white"/>
<rect x="45" y="38" width="18" height="5" rx="2.5" fill="white"/>
<rect x="59.3678" y="47.9646" width="6.44347" height="22.6411" rx="3.22174" transform="rotate(-28.8716 59.3678 47.9646)" fill="white"/>
<path d="M63.9814 63.8373C65.0486 64.2042 65.6258 65.3725 65.152 66.3967C64.0634 68.7501 62.5245 70.8756 60.6156 72.6498C58.2064 74.8889 55.2822 76.4992 52.102 77.3383C48.9218 78.1773 45.5838 78.2191 42.3836 77.4599C39.1834 76.7008 36.2198 75.1641 33.7554 72.986C31.2909 70.8079 29.4016 68.0556 28.2549 64.973C27.1082 61.8903 26.7394 58.5724 27.1813 55.3132C27.6231 52.054 28.8619 48.9541 30.788 46.288C32.3141 44.1755 34.2343 42.3871 36.4362 41.0175C37.3944 40.4214 38.6247 40.8507 39.1199 41.8647V41.8647C39.6152 42.8787 39.1853 44.0917 38.2431 44.7127C36.6379 45.7705 35.2329 47.1137 34.1006 48.6811C32.5681 50.8024 31.5824 53.269 31.2308 55.8622C30.8793 58.4555 31.1727 61.0954 32.0851 63.5482C32.9975 66.001 34.5007 68.1909 36.4616 69.9239C38.4225 71.6569 40.7806 72.8797 43.3269 73.4837C45.8732 74.0878 48.5292 74.0545 51.0596 73.3869C53.5899 72.7193 55.9166 71.438 57.8335 69.6564C59.2499 68.34 60.4102 66.7805 61.2628 65.0576C61.7633 64.0461 62.9142 63.4705 63.9814 63.8373V63.8373Z" fill="white"/>
<rect x="28" y="84" width="60" height="3" fill="white"/>
</svg>
