<svg width="115" height="131" viewBox="0 0 115 131" fill="none" xmlns="http://www.w3.org/2000/svg">
<path fill-rule="evenodd" clip-rule="evenodd" d="M20.1538 0C9.02319 0 0 9.02318 0 20.1538V94.0513C0 105.182 9.02318 114.205 20.1538 114.205H39.0258L52.6405 129.804C52.9908 130.181 53.4197 130.481 53.8992 130.687C54.3786 130.893 54.8979 131 55.4231 131C55.9482 131 56.4675 130.893 56.9469 130.687C57.4264 130.481 57.8553 130.181 58.2056 129.804L71.8204 114.205H94.0513C105.182 114.205 114.205 105.182 114.205 94.0513V20.1538C114.205 9.02319 105.182 0 94.0513 0H20.1538Z" fill="white"/>
<path fill-rule="evenodd" clip-rule="evenodd" d="M44.087 111.125C42.8113 109.644 40.9658 108.795 39.0257 108.795H20.1538C12.7334 108.795 6.7179 102.701 6.7179 95.1845V20.3281C6.7179 12.8114 12.7334 6.7179 20.1538 6.7179H94.0512C101.472 6.7179 107.487 12.8114 107.487 20.3281V95.1845C107.487 102.701 101.472 108.795 94.0512 108.795H71.8204C69.8802 108.795 68.0348 109.644 66.759 111.125L55.423 124.282L44.087 111.125Z" fill="#15803D"/>
<path fill-rule="evenodd" clip-rule="evenodd" d="M77.1483 13.3254C77.0054 18.9526 76.1105 24.485 74.5216 29.788C71.5141 39.8264 66.0204 49.0432 58.4354 56.5268C50.8504 64.0105 41.5605 69.3797 31.4825 72.2518C26.1586 73.7691 20.6147 74.5895 14.9861 74.6567L14.769 56.4632C14.7749 56.4631 14.7809 56.463 14.7869 56.463C26.3559 56.3203 37.4202 51.7012 45.6566 43.5749C53.8972 35.4444 58.6655 24.4362 58.9594 12.8635L77.1483 13.3254Z" fill="white"/>
<path fill-rule="evenodd" clip-rule="evenodd" d="M100 77.9323L75.1228 86.2246L38.0417 97.6342H14.7673V81.1102H35.557L70.0798 70.4878L94.7746 62.2562L100 77.9323Z" fill="white"/>
</svg>
