<svg width="114" height="151" viewBox="0 0 114 151" fill="none" xmlns="http://www.w3.org/2000/svg">
<path fill-rule="evenodd" clip-rule="evenodd" d="M57 0.857117C88.4802 0.857117 114 26.3769 114 57.8571C114 61.6997 113.62 65.4534 112.895 69.0828C107.864 106.994 57.2995 150.143 57.2995 150.143C57.2995 150.143 14.2687 113.423 3.64952 77.969C1.29066 71.7148 0 64.9367 0 57.8571C0 26.3769 25.5198 0.857117 57 0.857117Z" fill="#B91C1C"/>
<circle cx="46.5" cy="23.5" r="4.5" fill="white"/>
<rect x="42" y="29.5248" width="9" height="23.7313" rx="4" transform="rotate(-3.34327 42 29.5248)" fill="white"/>
<rect x="44" y="45" width="23" height="8" rx="4" fill="white"/>
<rect x="45" y="37" width="18" height="5" rx="2.5" fill="white"/>
<rect x="59.3678" y="46.9646" width="6.44347" height="22.6411" rx="3.22174" transform="rotate(-28.8716 59.3678 46.9646)" fill="white"/>
<path d="M63.9814 62.8373C65.0486 63.2042 65.6258 64.3725 65.152 65.3967C64.0634 67.7501 62.5245 69.8756 60.6156 71.6498C58.2064 73.8889 55.2822 75.4992 52.102 76.3383C48.9218 77.1773 45.5838 77.2191 42.3836 76.4599C39.1834 75.7008 36.2198 74.1641 33.7554 71.986C31.2909 69.8079 29.4016 67.0556 28.2549 63.973C27.1082 60.8903 26.7394 57.5724 27.1813 54.3132C27.6231 51.054 28.8619 47.9541 30.788 45.288C32.3141 43.1755 34.2343 41.3871 36.4362 40.0175C37.3944 39.4214 38.6247 39.8507 39.1199 40.8647V40.8647C39.6152 41.8787 39.1853 43.0917 38.2431 43.7127C36.6379 44.7705 35.2329 46.1137 34.1006 47.6811C32.5681 49.8024 31.5824 52.269 31.2308 54.8622C30.8793 57.4555 31.1727 60.0954 32.0851 62.5482C32.9975 65.001 34.5007 67.1909 36.4616 68.9239C38.4225 70.6569 40.7806 71.8797 43.3269 72.4837C45.8732 73.0878 48.5292 73.0545 51.0596 72.3869C53.5899 71.7193 55.9166 70.438 57.8335 68.6564C59.2499 67.34 60.4102 65.7805 61.2628 64.0576C61.7633 63.0461 62.9142 62.4705 63.9814 62.8373V62.8373Z" fill="white"/>
<rect x="28" y="83" width="60" height="3" fill="white"/>
<rect x="88" y="59" width="27" height="3" transform="rotate(90 88 59)" fill="white"/>
</svg>
