<svg width="115" height="131" viewBox="0 0 115 131" fill="none" xmlns="http://www.w3.org/2000/svg">
<path fill-rule="evenodd" clip-rule="evenodd" d="M20.1538 0C9.02319 0 0 9.02318 0 20.1538V94.0513C0 105.182 9.02318 114.205 20.1538 114.205H39.0258L52.6405 129.804C52.9908 130.181 53.4197 130.481 53.8992 130.687C54.3786 130.893 54.8979 131 55.4231 131C55.9482 131 56.4675 130.893 56.9469 130.687C57.4264 130.481 57.8553 130.181 58.2056 129.804L71.8204 114.205H94.0513C105.182 114.205 114.205 105.182 114.205 94.0513V20.1538C114.205 9.02319 105.182 0 94.0513 0H20.1538Z" fill="white"/>
<path fill-rule="evenodd" clip-rule="evenodd" d="M44.3691 111.407C43.0934 109.927 41.248 109.077 39.3078 109.077H20.4359C13.0155 109.077 7 102.983 7 95.4666V20.6102C7 13.0935 13.0155 7 20.4359 7H94.3333C101.754 7 107.769 13.0935 107.769 20.6103V95.4666C107.769 102.983 101.754 109.077 94.3333 109.077H72.1025C70.1623 109.077 68.3169 109.927 67.0411 111.407L55.7051 124.564L44.3691 111.407Z" fill="#B91C1C"/>
<rect x="20" y="94" width="76" height="4" fill="white"/>
<rect x="96" y="71" width="27" height="4" transform="rotate(90 96 71)" fill="white"/>
<path fill-rule="evenodd" clip-rule="evenodd" d="M43.7173 24.5738C46.8545 24.5738 49.3976 22.0306 49.3976 18.8935C49.3976 15.7563 46.8545 13.2131 43.7173 13.2131C40.5801 13.2131 38.037 15.7563 38.037 18.8935C38.037 22.0306 40.5801 24.5738 43.7173 24.5738ZM43.0776 26.2041C40.2937 26.3668 38.1688 28.7553 38.3314 31.5392L39.4895 51.3629C39.6521 54.1467 42.0407 56.2716 44.8245 56.109L45.0235 56.0974C45.2162 56.1197 45.4121 56.1312 45.6107 56.1312H64.1609L71.7963 69.9788C72.8808 71.9457 75.3544 72.661 77.3213 71.5765C79.2881 70.492 80.0034 68.0184 78.9189 66.0515L69.0465 48.1467C68.2379 46.6802 66.657 45.9095 65.0897 46.0618C64.9108 46.0426 64.7291 46.0328 64.5452 46.0328H50.5581L50.3369 42.2459H61.3894C63.1323 42.2459 64.5452 40.833 64.5452 39.0902C64.5452 37.3473 63.1323 35.9344 61.3894 35.9344H49.9682L49.6727 30.8766C49.5101 28.0928 47.1215 25.9679 44.3377 26.1305L43.0776 26.2041ZM67.2617 71.7794C67.8597 70.4865 67.1311 69.0118 65.784 68.5488C64.4369 68.0857 62.9841 68.8123 62.3523 70.0891C61.2761 72.264 59.8114 74.2325 58.0236 75.8941C55.6039 78.143 52.6669 79.7604 49.4728 80.6031C46.2787 81.4458 42.9261 81.4878 39.7119 80.7253C36.4977 79.9628 33.5211 78.4194 31.0459 76.2318C28.5707 74.0442 26.6732 71.2799 25.5214 68.1838C24.3697 65.0876 23.9993 61.7553 24.4431 58.4818C24.8869 55.2084 26.1311 52.0949 28.0656 49.4171C29.4949 47.4386 31.2685 45.7431 33.2946 44.4078C34.484 43.6239 35.0266 42.0928 34.4015 40.8128C33.7764 39.5328 32.2233 38.991 31.0138 39.7434C28.2344 41.4723 25.8105 43.7298 23.8841 46.3963C21.4529 49.7617 19.8891 53.6748 19.3314 57.7888C18.7737 61.9029 19.2391 66.0911 20.6866 69.9823C22.1341 73.8735 24.5189 77.3476 27.6298 80.097C30.7407 82.8464 34.4816 84.7862 38.5212 85.7445C42.5608 86.7028 46.7744 86.65 50.7887 85.5909C54.8031 84.5318 58.4943 82.499 61.5354 79.6726C63.945 77.4331 65.8875 74.7502 67.2617 71.7794Z" fill="white"/>
</svg>
