<svg width="115" height="131" viewBox="0 0 115 131" fill="none" xmlns="http://www.w3.org/2000/svg">
<path fill-rule="evenodd" clip-rule="evenodd" d="M20.1538 0C9.02319 0 0 9.02318 0 20.1538V94.0513C0 105.182 9.02318 114.205 20.1538 114.205H39.0258L52.6405 129.804C52.9908 130.181 53.4197 130.481 53.8992 130.687C54.3786 130.893 54.8979 131 55.4231 131C55.9482 131 56.4675 130.893 56.9469 130.687C57.4264 130.481 57.8553 130.181 58.2056 129.804L71.8204 114.205H94.0513C105.182 114.205 114.205 105.182 114.205 94.0513V20.1538C114.205 9.02319 105.182 0 94.0513 0H20.1538Z" fill="white"/>
<path fill-rule="evenodd" clip-rule="evenodd" d="M44.3691 111.407C43.0934 109.927 41.248 109.077 39.3078 109.077H20.4359C13.0155 109.077 7 102.983 7 95.4666V20.6102C7 13.0935 13.0155 7 20.4359 7H94.3333C101.754 7 107.769 13.0935 107.769 20.6103V95.4666C107.769 102.983 101.754 109.077 94.3333 109.077H72.1025C70.1623 109.077 68.3169 109.927 67.0411 111.407L55.7051 124.564L44.3691 111.407Z" fill="#B91C1C"/>
<path fill-rule="evenodd" clip-rule="evenodd" d="M76.041 14.3116C75.8983 19.9304 75.0047 25.4545 73.4183 30.7497C70.4152 40.7731 64.9297 49.9762 57.3559 57.4487C49.7822 64.9212 40.5061 70.2824 30.4431 73.1503C25.1271 74.6654 19.5915 75.4846 13.9712 75.5517L13.7544 57.3852C13.7604 57.3851 13.7663 57.385 13.7723 57.385C25.3242 57.2425 36.3719 52.6303 44.5961 44.516C52.8245 36.3977 57.5857 25.4058 57.8791 13.8504L76.041 14.3116Z" fill="white"/>
<path fill-rule="evenodd" clip-rule="evenodd" d="M98.9999 14.6227V98.4947H13.7529V81.9953H82.5005V14.6227H98.9999Z" fill="white"/>
</svg>
