<svg width="116" height="131" viewBox="0 0 116 131" fill="none" xmlns="http://www.w3.org/2000/svg">
<path fill-rule="evenodd" clip-rule="evenodd" d="M21.0513 0C9.92065 0 0.897461 9.02318 0.897461 20.1538V94.0513C0.897461 105.182 9.92064 114.205 21.0513 114.205H39.9232L53.538 129.804C53.8883 130.181 54.3172 130.481 54.7966 130.687C55.2761 130.893 55.7953 131 56.3205 131C56.8457 131 57.3649 130.893 57.8444 130.687C58.3239 130.481 58.7528 130.181 59.1031 129.804L72.7179 114.205H94.9487C106.079 114.205 115.103 105.182 115.103 94.0513V20.1538C115.103 9.02319 106.079 0 94.9487 0H21.0513Z" fill="white"/>
<path fill-rule="evenodd" clip-rule="evenodd" d="M44.9845 111.125C43.7088 109.645 41.8634 108.795 39.9232 108.795H21.0513C13.6309 108.795 7.61542 102.701 7.61542 95.1846V20.3282C7.61542 12.8115 13.6309 6.71796 21.0513 6.71796H94.9488C102.369 6.71796 108.385 12.8115 108.385 20.3282V95.1846C108.385 102.701 102.369 108.795 94.9488 108.795H72.7179C70.7777 108.795 68.9323 109.645 67.6565 111.125L56.3205 124.282L44.9845 111.125Z" fill="#FFAB33"/>
<rect x="21.2623" y="94" width="75.7377" height="3.78689" fill="white"/>
<path fill-rule="evenodd" clip-rule="evenodd" d="M44.6148 24.5738C47.7519 24.5738 50.2951 22.0306 50.2951 18.8935C50.2951 15.7563 47.7519 13.2131 44.6148 13.2131C41.4776 13.2131 38.9344 15.7563 38.9344 18.8935C38.9344 22.0306 41.4776 24.5738 44.6148 24.5738ZM43.975 26.2041C41.1912 26.3668 39.0663 28.7553 39.2289 31.5392L40.3869 51.3629C40.5496 54.1467 42.9381 56.2716 45.722 56.109L45.921 56.0974C46.1136 56.1197 46.3096 56.1312 46.5082 56.1312H65.0584L72.6938 69.9788C73.7783 71.9457 76.2519 72.661 78.2187 71.5765C80.1856 70.492 80.9009 68.0184 79.8164 66.0515L69.9439 48.1467C69.1353 46.6802 67.5544 45.9095 65.9871 46.0618C65.8082 46.0426 65.6266 46.0328 65.4426 46.0328H51.4556L51.2344 42.2459H62.2869C64.0298 42.2459 65.4426 40.833 65.4426 39.0902C65.4426 37.3473 64.0298 35.9344 62.2869 35.9344H50.8657L50.5702 30.8766C50.4076 28.0928 48.019 25.9679 45.2352 26.1305L43.975 26.2041ZM68.1591 71.7794C68.7572 70.4865 68.0286 69.0118 66.6815 68.5488C65.3344 68.0857 63.8815 68.8123 63.2498 70.0891C62.1736 72.264 60.7089 74.2325 58.921 75.8941C56.5013 78.143 53.5644 79.7604 50.3703 80.6031C47.1762 81.4458 43.8235 81.4878 40.6093 80.7253C37.3951 79.9628 34.4186 78.4194 31.9434 76.2318C29.4681 74.0442 27.5706 71.2799 26.4189 68.1838C25.2672 65.0876 24.8968 61.7553 25.3406 58.4818C25.7843 55.2084 27.0286 52.0949 28.963 49.4171C30.3924 47.4386 32.1659 45.7431 34.1921 44.4078C35.3815 43.6239 35.9241 42.0928 35.299 40.8128C34.6738 39.5328 33.1208 38.991 31.9112 39.7434C29.1319 41.4723 26.708 43.7298 24.7816 46.3963C22.3503 49.7617 20.7866 53.6748 20.2288 57.7888C19.6711 61.9029 20.1366 66.0911 21.5841 69.9823C23.0316 73.8735 25.4164 77.3476 28.5273 80.097C31.6381 82.8464 35.379 84.7862 39.4187 85.7445C43.4583 86.7028 47.6718 86.65 51.6862 85.5909C55.7005 84.5318 59.3917 82.499 62.4328 79.6726C64.8424 77.4331 66.7849 74.7502 68.1591 71.7794Z" fill="white"/>
<path d="M87.9793 83.069V82.9242C87.995 81.3875 88.1525 80.1646 88.4516 79.2555C88.7507 78.3464 89.1758 77.6103 89.7268 77.0471C90.2778 76.484 90.939 75.965 91.7104 75.4904C92.1748 75.2007 92.592 74.8588 92.9619 74.4646C93.3319 74.0623 93.6231 73.5997 93.8357 73.0768C94.0561 72.5539 94.1663 71.9746 94.1663 71.339C94.1663 70.5506 93.9852 69.8668 93.6231 69.2875C93.2611 68.7083 92.777 68.2617 92.1709 67.948C91.5648 67.6342 90.8917 67.4773 90.1518 67.4773C89.5064 67.4773 88.8845 67.6141 88.2863 67.8876C87.6881 68.1612 87.1882 68.5916 86.7868 69.1789C86.3853 69.7662 86.1531 70.5345 86.0902 71.4839H83.1147C83.1777 70.1162 83.5241 68.9456 84.1538 67.9721C84.7914 66.9986 85.6297 66.2545 86.6687 65.7396C87.7156 65.2247 88.8767 64.9672 90.1518 64.9672C91.5372 64.9672 92.7415 65.2488 93.7648 65.812C94.796 66.3751 95.591 67.1475 96.1499 68.129C96.7166 69.1105 97 70.2288 97 71.4839C97 72.3688 96.8662 73.1693 96.5985 73.8854C96.3388 74.6014 95.961 75.241 95.4651 75.8041C94.977 76.3673 94.3867 76.8661 93.694 77.3005C93.0013 77.743 92.4464 78.2097 92.0292 78.7004C91.612 79.1831 91.3089 79.7584 91.12 80.4261C90.9311 81.0939 90.8288 81.9265 90.813 82.9242V83.069H87.9793ZM89.4906 90.2131C88.9081 90.2131 88.4083 89.9999 87.9911 89.5735C87.5739 89.1471 87.3653 88.6363 87.3653 88.0409C87.3653 87.4456 87.5739 86.9347 87.9911 86.5083C88.4083 86.0819 88.9081 85.8687 89.4906 85.8687C90.0731 85.8687 90.5729 86.0819 90.9901 86.5083C91.4073 86.9347 91.6159 87.4456 91.6159 88.0409C91.6159 88.4351 91.5175 88.7972 91.3207 89.127C91.1318 89.4569 90.876 89.7224 90.5533 89.9235C90.2384 90.1166 89.8842 90.2131 89.4906 90.2131Z" fill="white"/>
</svg>
