<svg width="115" height="131" viewBox="0 0 115 131" fill="none" xmlns="http://www.w3.org/2000/svg">
<path fill-rule="evenodd" clip-rule="evenodd" d="M20.1538 0C9.02319 0 0 9.02318 0 20.1538V94.0513C0 105.182 9.02318 114.205 20.1538 114.205H39.0258L52.6405 129.804C52.9908 130.181 53.4197 130.481 53.8992 130.687C54.3786 130.893 54.8979 131 55.4231 131C55.9482 131 56.4675 130.893 56.9469 130.687C57.4264 130.481 57.8553 130.181 58.2056 129.804L71.8204 114.205H94.0513C105.182 114.205 114.205 105.182 114.205 94.0513V20.1538C114.205 9.02319 105.182 0 94.0513 0H20.1538Z" fill="white"/>
<path fill-rule="evenodd" clip-rule="evenodd" d="M44.087 111.125C42.8113 109.644 40.9658 108.795 39.0257 108.795H20.1538C12.7334 108.795 6.7179 102.701 6.7179 95.1845V20.3281C6.7179 12.8114 12.7334 6.7179 20.1538 6.7179H94.0512C101.472 6.7179 107.487 12.8114 107.487 20.3281V95.1845C107.487 102.701 101.472 108.795 94.0512 108.795H71.8204C69.8802 108.795 68.0348 109.644 66.759 111.125L55.423 124.282L44.087 111.125Z" fill="#FFAB33"/>
<path fill-rule="evenodd" clip-rule="evenodd" d="M76.408 13.359C76.2646 19.0065 75.3664 24.5587 73.7719 29.8808C70.7535 39.9553 65.2401 49.2053 57.6277 56.7159C50.0154 64.2264 40.6921 69.6149 30.5779 72.4974C25.2348 74.0202 19.6709 74.8436 14.0221 74.911L13.8042 56.652C13.8102 56.6519 13.8161 56.6518 13.8221 56.6518C25.4328 56.5086 36.5369 51.8728 44.8029 43.7173C53.0732 35.5576 57.8586 24.5097 58.1536 12.8954L76.408 13.359Z" fill="white"/>
<path d="M77.1254 82.4348V81.5092C77.1254 78.9507 77.3361 76.9115 77.7574 75.3915C78.1939 73.8715 78.826 72.6525 79.6537 71.7344C80.4814 70.8013 81.4898 69.951 82.6787 69.1835C83.6268 68.5815 84.4696 67.972 85.207 67.355C85.9595 66.7229 86.554 66.0456 86.9904 65.3233C87.4269 64.6009 87.6451 63.7807 87.6451 62.8626C87.6451 61.9747 87.4344 61.1921 87.013 60.5149C86.5916 59.8376 86.0122 59.3184 85.2748 58.9572C84.5524 58.581 83.7472 58.3929 82.8593 58.3929C81.9714 58.3929 81.1361 58.596 80.3535 59.0024C79.586 59.4087 78.9539 59.9881 78.4573 60.7406C77.9757 61.4781 77.7273 62.3735 77.7123 63.427H67.328C67.3732 60.2666 68.1031 57.678 69.5177 55.6613C70.9475 53.6447 72.8362 52.1548 75.1839 51.1916C77.5317 50.2134 80.1202 49.7242 82.9496 49.7242C86.0498 49.7242 88.8039 50.2058 91.2119 51.169C93.6349 52.1322 95.5387 53.5544 96.9232 55.4356C98.3078 57.3168 99.0001 59.6194 99.0001 62.3434C99.0001 64.1343 98.6991 65.7145 98.0971 67.0841C97.4951 68.4536 96.6523 69.6651 95.5688 70.7186C94.5002 71.757 93.2436 72.7051 91.7988 73.563C90.6701 74.2251 89.7295 74.9174 88.977 75.6398C88.2396 76.3622 87.6827 77.1899 87.3065 78.123C86.9302 79.041 86.7421 80.1698 86.7421 81.5092V82.4348H77.1254ZM82.1143 97.2437C80.489 97.2437 79.0969 96.6718 77.938 95.528C76.7943 94.3842 76.2299 92.9996 76.2449 91.3743C76.2299 89.779 76.7943 88.417 77.938 87.2883C79.0969 86.1445 80.489 85.5726 82.1143 85.5726C83.6644 85.5726 85.0264 86.1445 86.2003 87.2883C87.3742 88.417 87.9687 89.779 87.9837 91.3743C87.9687 92.4579 87.6827 93.4436 87.1259 94.3315C86.5841 95.2195 85.8692 95.9268 84.9813 96.4535C84.1084 96.9803 83.1528 97.2437 82.1143 97.2437Z" fill="white"/>
</svg>
