<svg width="114" height="150" viewBox="0 0 114 150" fill="none" xmlns="http://www.w3.org/2000/svg">
<path fill-rule="evenodd" clip-rule="evenodd" d="M57 0C88.4802 0 114 25.5198 114 57C114 60.8426 113.62 64.5963 112.895 68.2257C107.864 106.137 57.2995 149.286 57.2995 149.286C57.2995 149.286 14.2687 112.566 3.64952 77.1118C1.29066 70.8576 0 64.0796 0 57C0 25.5198 25.5198 0 57 0Z" fill="#854D0E"/>
<rect x="27" y="85" width="60" height="3" fill="white"/>
<circle cx="45.5" cy="25.5" r="4.5" fill="white"/>
<rect x="41" y="31.5248" width="9" height="23.7313" rx="4" transform="rotate(-3.34327 41 31.5248)" fill="white"/>
<rect x="43" y="47" width="23" height="8" rx="4" fill="white"/>
<rect x="44" y="39" width="18" height="5" rx="2.5" fill="white"/>
<rect x="58.3678" y="48.9646" width="6.44347" height="22.6411" rx="3.22174" transform="rotate(-28.8716 58.3678 48.9646)" fill="white"/>
<path d="M62.9814 64.8373C64.0486 65.2042 64.6258 66.3725 64.152 67.3967C63.0634 69.7501 61.5245 71.8756 59.6156 73.6498C57.2064 75.8889 54.2822 77.4992 51.102 78.3383C47.9218 79.1773 44.5838 79.2191 41.3836 78.4599C38.1834 77.7008 35.2198 76.1641 32.7554 73.986C30.2909 71.8079 28.4016 69.0556 27.2549 65.973C26.1082 62.8903 25.7394 59.5724 26.1813 56.3132C26.6231 53.054 27.8619 49.9541 29.788 47.288C31.3141 45.1755 33.2343 43.3871 35.4362 42.0175C36.3944 41.4214 37.6247 41.8507 38.1199 42.8647V42.8647C38.6152 43.8787 38.1853 45.0917 37.2431 45.7127C35.6379 46.7705 34.2329 48.1137 33.1006 49.6811C31.5681 51.8024 30.5824 54.269 30.2308 56.8622C29.8793 59.4555 30.1727 62.0954 31.0851 64.5482C31.9975 67.001 33.5007 69.1909 35.4616 70.9239C37.4225 72.6569 39.7806 73.8797 42.3269 74.4837C44.8732 75.0878 47.5292 75.0545 50.0596 74.3869C52.5899 73.7193 54.9166 72.438 56.8335 70.6564C58.2499 69.34 59.4102 67.7805 60.2628 66.0576C60.7633 65.0461 61.9142 64.4705 62.9814 64.8373V64.8373Z" fill="white"/>
<path d="M81.233 76.5455V76.4943C81.2386 75.9517 81.2955 75.5199 81.4034 75.1989C81.5114 74.8778 81.6648 74.6179 81.8636 74.419C82.0625 74.2202 82.3011 74.0369 82.5795 73.8693C82.7472 73.767 82.8977 73.6463 83.0312 73.5071C83.1648 73.3651 83.2699 73.2017 83.3466 73.017C83.4261 72.8324 83.4659 72.6278 83.4659 72.4034C83.4659 72.125 83.4006 71.8835 83.2699 71.679C83.1392 71.4744 82.9645 71.3168 82.7457 71.206C82.527 71.0952 82.2841 71.0398 82.017 71.0398C81.7841 71.0398 81.5597 71.0881 81.3438 71.1847C81.1278 71.2812 80.9474 71.4332 80.8026 71.6406C80.6577 71.848 80.5739 72.1193 80.5511 72.4545H79.4773C79.5 71.9716 79.625 71.5582 79.8523 71.2145C80.0824 70.8707 80.3849 70.608 80.7599 70.4261C81.1378 70.2443 81.5568 70.1534 82.017 70.1534C82.517 70.1534 82.9517 70.2528 83.321 70.4517C83.6932 70.6506 83.9801 70.9233 84.1818 71.2699C84.3864 71.6165 84.4886 72.0114 84.4886 72.4545C84.4886 72.767 84.4403 73.0497 84.3438 73.3026C84.25 73.5554 84.1136 73.7812 83.9347 73.9801C83.7585 74.179 83.5455 74.3551 83.2955 74.5085C83.0455 74.6648 82.8452 74.8295 82.6946 75.0028C82.544 75.1733 82.4347 75.3764 82.3665 75.6122C82.2983 75.848 82.2614 76.142 82.2557 76.4943V76.5455H81.233ZM81.7784 79.0682C81.5682 79.0682 81.3878 78.9929 81.2372 78.8423C81.0866 78.6918 81.0114 78.5114 81.0114 78.3011C81.0114 78.0909 81.0866 77.9105 81.2372 77.7599C81.3878 77.6094 81.5682 77.5341 81.7784 77.5341C81.9886 77.5341 82.169 77.6094 82.3196 77.7599C82.4702 77.9105 82.5455 78.0909 82.5455 78.3011C82.5455 78.4403 82.5099 78.5682 82.4389 78.6847C82.3707 78.8011 82.2784 78.8949 82.1619 78.9659C82.0483 79.0341 81.9205 79.0682 81.7784 79.0682Z" fill="white"/>
</svg>
